<svg width="93" height="100" viewBox="0 0 93 100" fill="none" xmlns="http://www.w3.org/2000/svg">
<rect width="92.2983" height="100" rx="15" fill="#D9D9D9"/>
<path d="M46 50.5C54.8375 50.5 62 43.2256 62 34.25C62 25.2744 54.8375 18 46 18C37.1625 18 30 25.2744 30 34.25C30 43.2256 37.1625 50.5 46 50.5ZM57.975 54.6387L52 78.9375L48 61.6719L52 54.5625H40L44 61.6719L40 78.9375L34.025 54.6387C25.1125 55.0703 18 62.4717 18 71.625V76.9062C18 80.2705 20.6875 83 24 83H68C71.3125 83 74 80.2705 74 76.9062V71.625C74 62.4717 66.8875 55.0703 57.975 54.6387Z" fill="black"/>
</svg>
