<svg width="93" height="100" viewBox="0 0 93 100" fill="none" xmlns="http://www.w3.org/2000/svg">
<g id="Group 22">
<rect id="Rectangle 3" width="92.2983" height="100" rx="15" fill="#D9D9D9"/>
<path id="Vector" d="M46 49.5C54.8375 49.5 62 42.2256 62 33.25C62 24.2744 54.8375 17 46 17C37.1625 17 30 24.2744 30 33.25C30 42.2256 37.1625 49.5 46 49.5ZM57.2 53.5625H55.1125C52.3375 54.8574 49.25 55.5938 46 55.5938C42.75 55.5938 39.675 54.8574 36.8875 53.5625H34.8C25.525 53.5625 18 61.2051 18 70.625V75.9062C18 79.2705 20.6875 82 24 82H68C71.3125 82 74 79.2705 74 75.9062V70.625C74 61.2051 66.475 53.5625 57.2 53.5625Z" fill="black"/>
</g>
</svg>
