<svg width="783" height="212" viewBox="0 0 783 212" fill="none" xmlns="http://www.w3.org/2000/svg">
<g clip-path="url(#clip0_1_72)">
<path d="M22.9468 62.3334V202.396H0.60199V47.7945H22.9468V62.913" fill="white"/>
<path d="M22.9469 62.3334V202.396H0.60199V47.7945H22.9469V62.913" stroke="black" stroke-miterlimit="10"/>
<path d="M110.605 52.7938H129.434L130.289 72.3439H131.782C134.057 64.2654 137.801 58.7107 143.014 55.6677C148.215 52.6247 155.102 51.1032 163.662 51.1032V71.716C155.246 71.716 148.685 73.1288 143.978 75.9665C139.27 78.8042 135.983 83.1514 134.129 89.0321C132.275 94.9129 131.348 102.943 131.348 113.147V161.159H110.593V52.7938H110.605Z" fill="black"/>
<path d="M194.386 156.534C188.463 153.467 184.646 148.347 182.937 141.162C181.227 133.977 180.372 122.3 180.372 106.119C180.372 89.9378 181.227 78.2246 182.937 70.9673C184.646 63.722 188.463 58.59 194.386 55.5953C200.309 52.6006 210.109 51.1032 223.81 51.1032C237.51 51.1032 247.31 52.6006 253.234 55.5953C259.157 58.602 262.974 63.722 264.683 70.9673C266.393 78.2246 267.247 89.9378 267.247 106.119C267.247 122.3 266.393 133.977 264.683 141.162C262.974 148.347 259.157 153.467 253.234 156.534C247.31 159.601 237.51 161.135 223.81 161.135C210.109 161.135 200.309 159.601 194.386 156.534ZM239.858 141.464C242.856 139.785 244.71 136.585 245.42 131.84C246.131 127.094 246.492 118.52 246.492 106.107C246.492 93.6932 246.131 84.9386 245.42 80.2654C244.71 75.5922 242.856 72.4163 239.858 70.7499C236.86 69.0714 231.515 68.2382 223.81 68.2382C216.105 68.2382 210.976 69.0714 207.978 70.7499C204.98 72.4284 203.126 75.5922 202.416 80.2654C201.706 84.9386 201.345 93.5483 201.345 106.107C201.345 118.665 201.694 127.094 202.416 131.84C203.126 136.585 204.98 139.785 207.978 141.464C210.976 143.142 216.249 143.975 223.81 143.975C231.37 143.975 236.86 143.142 239.858 141.464Z" fill="black"/>
<path d="M293.132 52.7817H311.961L312.816 67.1877H314.309C316.729 60.9688 320.509 56.7304 325.65 54.4723C330.791 52.2141 336.846 51.0791 343.841 51.0791C352.822 51.0791 359.781 52.7092 364.705 55.9575C369.629 59.2058 373.157 64.7847 375.3 72.6941C377.443 80.6035 378.514 91.9061 378.514 106.602C378.514 121.298 377.479 132.636 375.408 140.618C373.337 148.6 369.882 154.252 365.03 157.572C360.178 160.893 353.328 162.547 344.491 162.547C337.075 162.547 330.971 161.448 326.192 159.263C321.412 157.077 317.74 153.37 315.176 148.141H313.888V202.396H293.132V52.7817ZM350.366 139.773C353.292 138.167 355.254 134.774 356.254 129.593C357.253 124.413 357.747 115.767 357.747 103.643C357.747 91.5197 357.241 82.8736 356.254 77.6933C355.254 72.5129 353.292 69.1197 350.366 67.5137C347.441 65.9077 342.553 65.1107 335.715 65.1107C330.297 65.1107 326.047 65.9922 322.989 67.7431C319.919 69.4941 317.752 72.4163 316.464 76.4978C315.32 79.565 314.61 83.1393 314.321 87.2329C314.032 91.3265 313.888 96.7966 313.888 103.655C313.888 115.912 314.598 124.534 316.031 129.497C317.451 134.025 319.702 137.273 322.773 139.242C325.843 141.21 330.153 142.2 335.715 142.2C342.565 142.2 347.441 141.403 350.366 139.797V139.773Z" fill="black"/>
<path d="M404.627 21.4339V0H426.238V21.4339H404.627ZM405.061 160.845V50.4391H425.817V160.845H405.061Z" fill="black"/>
<path d="M515.665 100.806C515.665 90.8917 515.196 83.8397 514.269 79.6616C513.342 75.4835 511.596 72.7544 509.032 71.4744C506.467 70.1945 502.037 69.5665 495.765 69.5665C489.492 69.5665 484.351 70.8465 481.209 73.3944C478.067 75.9424 476.068 79.6374 475.214 84.4435C474.359 89.2616 473.925 96.1325 473.925 105.056V161.171H453.17V52.7696H471.999L472.854 67.2239H474.347C476.622 61.9832 480.198 57.9741 485.05 55.2089C489.901 52.4436 496.463 51.067 504.734 51.067C513.715 51.067 520.457 52.516 524.96 55.4262C529.45 58.3364 532.484 62.6956 534.049 68.5039C535.615 74.3122 536.397 82.3906 536.397 92.7393V161.183H515.641V100.818L515.665 100.806Z" fill="black"/>
<path d="M566.82 21.6633V0.229433H588.431V21.6633H566.82ZM567.254 161.074V50.6685H588.009V161.074H567.254Z" fill="black"/>
<path d="M625.74 161.062V68.4073H607.128V50.6564H625.74V18.6203H646.496V50.6564H668.54V68.4073H646.496V161.062H625.74Z" fill="black"/>
<path d="M687.357 153.998C682.433 149.264 679.977 141.174 679.977 129.738C679.977 121.515 680.904 115.103 682.758 110.502C684.612 105.901 687.755 102.557 692.173 100.468C696.591 98.3785 702.804 97.3279 710.786 97.3279C718.057 97.3279 728.544 97.6057 742.244 98.1611V92.5098C742.244 84.7091 741.606 79.2027 740.318 75.9907C739.03 72.7907 736.61 70.6895 733.046 69.7114C729.483 68.7333 723.487 68.2503 715.072 68.2503C711.075 68.2503 706.09 68.4556 700.095 68.8782C694.099 69.3009 689.464 69.7839 686.19 70.3394V54.0255C696.892 52.0692 708.727 51.1032 721.705 51.1032C733.54 51.1032 742.389 52.4315 748.24 55.076C754.091 57.7205 758.004 61.9469 760.014 67.7311C762.013 73.5152 763.012 81.9197 763.012 92.9325V159.432H744.183L743.328 145.63H742.04C739.331 151.764 735.225 155.882 729.736 157.971C724.246 160.06 717.865 161.11 710.581 161.11C700.023 161.11 692.281 158.744 687.369 153.998H687.357ZM731.541 142.309C734.672 141.198 737.104 139.109 738.813 136.03C741.089 131.574 742.232 125.017 742.232 116.371V111.347H715.915C711.496 111.347 708.209 111.734 706.066 112.495C703.923 113.267 702.431 114.789 701.576 117.095C700.721 119.39 700.288 122.988 700.288 127.867C700.288 132.467 700.745 135.885 701.684 138.119C702.611 140.353 704.393 141.886 707.03 142.719C709.666 143.553 713.771 143.975 719.334 143.975C724.33 143.975 728.387 143.42 731.529 142.297L731.541 142.309Z" fill="black"/>
<path d="M22.9468 47.7945H0.60199V202.408H22.9468V47.7945Z" fill="black"/>
<path d="M27.2448 47.5893V161.05C27.4736 161.05 27.7143 161.05 27.9551 161.05C58.5228 161.05 83.5043 137.43 85.262 107.652H91.3057V117.071C91.3057 117.071 91.3057 119.426 91.3057 119.438C91.3057 121.165 92.7023 122.566 94.4239 122.566C96.1455 122.566 97.542 121.165 97.542 119.438V117.095V88.9838C97.542 87.257 96.1455 85.8563 94.4239 85.8563C92.7023 85.8563 91.3057 87.257 91.3057 88.9838C91.3057 88.9838 91.3057 88.9959 91.3057 89.008V100.842H85.25C83.432 71.1243 58.4746 47.5772 27.9551 47.5772H27.2448V47.5893Z" fill="#B49B24"/>
</g>
<path d="M338.322 197.835C337.794 197.945 337.145 198.044 336.375 198.132C335.627 198.22 334.923 198.264 334.263 198.264C332.415 198.264 331.051 197.978 330.171 197.406C329.313 196.812 328.752 195.932 328.488 194.766C328.246 193.6 328.125 191.873 328.125 189.585C328.125 187.297 328.279 185.559 328.587 184.371C328.895 183.161 329.478 182.281 330.336 181.731C331.194 181.181 332.47 180.906 334.164 180.906C334.846 180.906 335.561 180.95 336.309 181.038C337.057 181.126 337.684 181.225 338.19 181.335V183.414C337.09 183.194 335.946 183.084 334.758 183.084C333.526 183.084 332.624 183.249 332.052 183.579C331.502 183.909 331.128 184.514 330.93 185.394C330.754 186.274 330.666 187.671 330.666 189.585C330.666 191.543 330.765 192.962 330.963 193.842C331.161 194.7 331.535 195.294 332.085 195.624C332.657 195.932 333.57 196.086 334.824 196.086C336.012 196.086 337.178 195.976 338.322 195.756V197.835ZM354.467 188.298C354.467 186.692 354.379 185.559 354.203 184.899C354.049 184.217 353.73 183.766 353.246 183.546C352.784 183.326 352.003 183.216 350.903 183.216C349.693 183.216 348.802 183.447 348.23 183.909C347.68 184.349 347.328 184.976 347.174 185.79C347.042 186.604 346.976 187.759 346.976 189.255V198H344.468V173.481H346.976V183.315H347.141C347.471 182.567 347.999 181.984 348.725 181.566C349.473 181.126 350.54 180.906 351.926 180.906C353.356 180.906 354.423 181.126 355.127 181.566C355.853 182.006 356.337 182.677 356.579 183.579C356.843 184.459 356.975 185.713 356.975 187.341V198H354.467V188.298ZM368.238 198.264C366.478 198.264 365.213 197.912 364.443 197.208C363.673 196.482 363.288 195.195 363.288 193.347C363.288 192.071 363.42 191.081 363.684 190.377C363.97 189.651 364.443 189.134 365.103 188.826C365.785 188.496 366.731 188.331 367.941 188.331C368.557 188.331 370.35 188.386 373.32 188.496V187.374C373.32 186.01 373.21 185.042 372.99 184.47C372.77 183.876 372.363 183.502 371.769 183.348C371.197 183.172 370.218 183.084 368.832 183.084C368.216 183.084 367.435 183.117 366.489 183.183C365.565 183.249 364.817 183.326 364.245 183.414V181.368C365.785 181.06 367.578 180.906 369.624 180.906C371.384 180.906 372.693 181.104 373.551 181.5C374.431 181.874 375.025 182.512 375.333 183.414C375.663 184.316 375.828 185.636 375.828 187.374V198H373.584L373.452 195.657H373.287C372.891 196.713 372.242 197.417 371.34 197.769C370.46 198.099 369.426 198.264 368.238 198.264ZM369.129 196.086C370.053 196.086 370.801 195.998 371.373 195.822C371.967 195.624 372.407 195.239 372.693 194.667C373.111 193.809 373.32 192.654 373.32 191.202V190.245H368.601C367.787 190.245 367.182 190.322 366.786 190.476C366.412 190.608 366.148 190.883 365.994 191.301C365.84 191.697 365.763 192.324 365.763 193.182C365.763 194.018 365.851 194.634 366.027 195.03C366.203 195.426 366.522 195.701 366.984 195.855C367.446 196.009 368.161 196.086 369.129 196.086ZM393.186 195.624H392.988C392.658 196.482 392.119 197.142 391.371 197.604C390.623 198.044 389.534 198.264 388.104 198.264C386.674 198.264 385.596 198.044 384.87 197.604C384.144 197.164 383.649 196.493 383.385 195.591C383.143 194.689 383.022 193.424 383.022 191.796V181.17H385.53V190.872C385.53 192.456 385.618 193.589 385.794 194.271C385.97 194.953 386.289 195.404 386.751 195.624C387.235 195.844 388.027 195.954 389.127 195.954C390.337 195.954 391.217 195.734 391.767 195.294C392.317 194.832 392.658 194.205 392.79 193.413C392.944 192.599 393.021 191.433 393.021 189.915V181.17H395.529V198H393.285L393.186 195.624ZM424.147 190.443H414.049C414.049 192.159 414.137 193.391 414.313 194.139C414.511 194.887 414.929 195.404 415.567 195.69C416.227 195.976 417.305 196.119 418.801 196.119C420.209 196.119 421.804 195.998 423.586 195.756V197.802C422.992 197.934 422.189 198.044 421.177 198.132C420.187 198.22 419.219 198.264 418.273 198.264C416.249 198.264 414.764 198.011 413.818 197.505C412.872 196.977 412.245 196.13 411.937 194.964C411.651 193.798 411.508 192.016 411.508 189.618C411.508 187.242 411.64 185.482 411.904 184.338C412.168 183.172 412.762 182.314 413.686 181.764C414.632 181.192 416.117 180.906 418.141 180.906C420.033 180.906 421.397 181.181 422.233 181.731C423.069 182.259 423.597 183.095 423.817 184.239C424.037 185.361 424.147 187.143 424.147 189.585V190.443ZM418.075 183.051C416.821 183.051 415.919 183.183 415.369 183.447C414.841 183.711 414.489 184.217 414.313 184.965C414.137 185.691 414.049 186.89 414.049 188.562H421.738V188.232C421.738 186.67 421.628 185.537 421.408 184.833C421.21 184.107 420.858 183.634 420.352 183.414C419.868 183.172 419.109 183.051 418.075 183.051ZM432.037 183.348H429.1V181.17H432.037V178.464C432.037 176.946 432.235 175.835 432.631 175.131C433.027 174.427 433.632 173.976 434.446 173.778C435.282 173.58 436.558 173.481 438.274 173.481V175.461C437.196 175.461 436.404 175.527 435.898 175.659C435.392 175.769 435.04 176 434.842 176.352C434.644 176.704 434.545 177.254 434.545 178.002V181.17H438.274V183.348H434.545V198H432.037V183.348ZM455.773 190.443H445.675C445.675 192.159 445.763 193.391 445.939 194.139C446.137 194.887 446.555 195.404 447.193 195.69C447.853 195.976 448.931 196.119 450.427 196.119C451.835 196.119 453.43 195.998 455.212 195.756V197.802C454.618 197.934 453.815 198.044 452.803 198.132C451.813 198.22 450.845 198.264 449.899 198.264C447.875 198.264 446.39 198.011 445.444 197.505C444.498 196.977 443.871 196.13 443.563 194.964C443.277 193.798 443.134 192.016 443.134 189.618C443.134 187.242 443.266 185.482 443.53 184.338C443.794 183.172 444.388 182.314 445.312 181.764C446.258 181.192 447.743 180.906 449.767 180.906C451.659 180.906 453.023 181.181 453.859 181.731C454.695 182.259 455.223 183.095 455.443 184.239C455.663 185.361 455.773 187.143 455.773 189.585V190.443ZM449.701 183.051C448.447 183.051 447.545 183.183 446.995 183.447C446.467 183.711 446.115 184.217 445.939 184.965C445.763 185.691 445.675 186.89 445.675 188.562H453.364V188.232C453.364 186.67 453.254 185.537 453.034 184.833C452.836 184.107 452.484 183.634 451.978 183.414C451.494 183.172 450.735 183.051 449.701 183.051ZM472.012 197.835C471.484 197.945 470.835 198.044 470.065 198.132C469.317 198.22 468.613 198.264 467.953 198.264C466.105 198.264 464.741 197.978 463.861 197.406C463.003 196.812 462.442 195.932 462.178 194.766C461.936 193.6 461.815 191.873 461.815 189.585C461.815 187.297 461.969 185.559 462.277 184.371C462.585 183.161 463.168 182.281 464.026 181.731C464.884 181.181 466.16 180.906 467.854 180.906C468.536 180.906 469.251 180.95 469.999 181.038C470.747 181.126 471.374 181.225 471.88 181.335V183.414C470.78 183.194 469.636 183.084 468.448 183.084C467.216 183.084 466.314 183.249 465.742 183.579C465.192 183.909 464.818 184.514 464.62 185.394C464.444 186.274 464.356 187.671 464.356 189.585C464.356 191.543 464.455 192.962 464.653 193.842C464.851 194.7 465.225 195.294 465.775 195.624C466.347 195.932 467.26 196.086 468.514 196.086C469.702 196.086 470.868 195.976 472.012 195.756V197.835ZM479.379 198V183.348H476.442V181.17H479.379V176.286H481.887V181.17H485.352V183.348H481.887V198H479.379ZM490.876 176.352V173.481H493.549V176.352H490.876ZM490.942 198V181.17H493.45V198H490.942ZM504.425 198L499.013 181.17H501.653L505.91 195.129H506.141L510.398 181.17H512.972L507.593 198H504.425ZM524.157 198.264C522.089 198.264 520.604 198.033 519.702 197.571C518.8 197.087 518.217 196.284 517.953 195.162C517.711 194.018 517.59 192.159 517.59 189.585C517.59 187.011 517.711 185.163 517.953 184.041C518.217 182.897 518.8 182.094 519.702 181.632C520.604 181.148 522.089 180.906 524.157 180.906C526.225 180.906 527.71 181.148 528.612 181.632C529.514 182.094 530.086 182.897 530.328 184.041C530.592 185.163 530.724 187.011 530.724 189.585C530.724 192.159 530.592 194.018 530.328 195.162C530.086 196.284 529.514 197.087 528.612 197.571C527.71 198.033 526.225 198.264 524.157 198.264ZM524.157 196.086C525.521 196.086 526.467 195.943 526.995 195.657C527.545 195.349 527.886 194.799 528.018 194.007C528.15 193.193 528.216 191.719 528.216 189.585C528.216 187.451 528.15 185.988 528.018 185.196C527.886 184.382 527.545 183.832 526.995 183.546C526.467 183.238 525.521 183.084 524.157 183.084C522.793 183.084 521.847 183.238 521.319 183.546C520.791 183.832 520.461 184.382 520.329 185.196C520.197 185.988 520.131 187.451 520.131 189.585C520.131 191.741 520.197 193.215 520.329 194.007C520.461 194.799 520.791 195.349 521.319 195.657C521.847 195.943 522.793 196.086 524.157 196.086ZM536.195 200.706C536.943 200.706 537.427 200.563 537.647 200.277C537.867 200.013 537.977 199.441 537.977 198.561V198H536.822V194.898H539.759V197.571C539.759 198.825 539.671 199.749 539.495 200.343C539.319 200.937 538.978 201.355 538.472 201.597C537.988 201.839 537.229 201.96 536.195 201.96V200.706ZM565.826 188.298C565.826 186.692 565.738 185.559 565.562 184.899C565.408 184.217 565.089 183.766 564.605 183.546C564.143 183.326 563.362 183.216 562.262 183.216C561.052 183.216 560.161 183.447 559.589 183.909C559.039 184.349 558.687 184.976 558.533 185.79C558.401 186.604 558.335 187.759 558.335 189.255V198H555.827V173.481H558.335V183.315H558.5C558.83 182.567 559.358 181.984 560.084 181.566C560.832 181.126 561.899 180.906 563.285 180.906C564.715 180.906 565.782 181.126 566.486 181.566C567.212 182.006 567.696 182.677 567.938 183.579C568.202 184.459 568.334 185.713 568.334 187.341V198H565.826V188.298ZM581.544 198.264C579.476 198.264 577.991 198.033 577.089 197.571C576.187 197.087 575.604 196.284 575.34 195.162C575.098 194.018 574.977 192.159 574.977 189.585C574.977 187.011 575.098 185.163 575.34 184.041C575.604 182.897 576.187 182.094 577.089 181.632C577.991 181.148 579.476 180.906 581.544 180.906C583.612 180.906 585.097 181.148 585.999 181.632C586.901 182.094 587.473 182.897 587.715 184.041C587.979 185.163 588.111 187.011 588.111 189.585C588.111 192.159 587.979 194.018 587.715 195.162C587.473 196.284 586.901 197.087 585.999 197.571C585.097 198.033 583.612 198.264 581.544 198.264ZM581.544 196.086C582.908 196.086 583.854 195.943 584.382 195.657C584.932 195.349 585.273 194.799 585.405 194.007C585.537 193.193 585.603 191.719 585.603 189.585C585.603 187.451 585.537 185.988 585.405 185.196C585.273 184.382 584.932 183.832 584.382 183.546C583.854 183.238 582.908 183.084 581.544 183.084C580.18 183.084 579.234 183.238 578.706 183.546C578.178 183.832 577.848 184.382 577.716 185.196C577.584 185.988 577.518 187.451 577.518 189.585C577.518 191.741 577.584 193.215 577.716 194.007C577.848 194.799 578.178 195.349 578.706 195.657C579.234 195.943 580.18 196.086 581.544 196.086ZM594.736 198V173.481H597.244V198H594.736ZM608.516 198.264C606.756 198.264 605.491 197.912 604.721 197.208C603.951 196.482 603.566 195.195 603.566 193.347C603.566 192.071 603.698 191.081 603.962 190.377C604.248 189.651 604.721 189.134 605.381 188.826C606.063 188.496 607.009 188.331 608.219 188.331C608.835 188.331 610.628 188.386 613.598 188.496V187.374C613.598 186.01 613.488 185.042 613.268 184.47C613.048 183.876 612.641 183.502 612.047 183.348C611.475 183.172 610.496 183.084 609.11 183.084C608.494 183.084 607.713 183.117 606.767 183.183C605.843 183.249 605.095 183.326 604.523 183.414V181.368C606.063 181.06 607.856 180.906 609.902 180.906C611.662 180.906 612.971 181.104 613.829 181.5C614.709 181.874 615.303 182.512 615.611 183.414C615.941 184.316 616.106 185.636 616.106 187.374V198H613.862L613.73 195.657H613.565C613.169 196.713 612.52 197.417 611.618 197.769C610.738 198.099 609.704 198.264 608.516 198.264ZM609.407 196.086C610.331 196.086 611.079 195.998 611.651 195.822C612.245 195.624 612.685 195.239 612.971 194.667C613.389 193.809 613.598 192.654 613.598 191.202V190.245H608.879C608.065 190.245 607.46 190.322 607.064 190.476C606.69 190.608 606.426 190.883 606.272 191.301C606.118 191.697 606.041 192.324 606.041 193.182C606.041 194.018 606.129 194.634 606.305 195.03C606.481 195.426 606.8 195.701 607.262 195.855C607.724 196.009 608.439 196.086 609.407 196.086ZM638.048 204.699C636.068 204.699 634.33 204.6 632.834 204.402V202.356C634.55 202.466 636.123 202.521 637.553 202.521C639.049 202.521 640.127 202.356 640.787 202.026C641.447 201.718 641.876 201.157 642.074 200.343C642.294 199.529 642.404 198.22 642.404 196.416V195.822H642.239C641.887 196.658 641.326 197.263 640.556 197.637C639.786 197.989 638.785 198.165 637.553 198.165C636.035 198.165 634.88 197.923 634.088 197.439C633.318 196.933 632.779 196.086 632.471 194.898C632.163 193.688 632.009 191.917 632.009 189.585C632.009 187.231 632.163 185.449 632.471 184.239C632.801 183.007 633.351 182.149 634.121 181.665C634.913 181.159 636.057 180.906 637.553 180.906C638.719 180.906 639.72 181.093 640.556 181.467C641.392 181.841 641.997 182.534 642.371 183.546H642.536L642.668 181.17H644.912V195.723C644.912 198.121 644.758 199.925 644.45 201.135C644.142 202.367 643.504 203.269 642.536 203.841C641.568 204.413 640.072 204.699 638.048 204.699ZM638.51 195.921C639.478 195.921 640.237 195.767 640.787 195.459C641.359 195.151 641.755 194.656 641.975 193.974C642.151 193.468 642.261 192.896 642.305 192.258C642.371 191.598 642.404 190.696 642.404 189.552C642.404 188.496 642.382 187.649 642.338 187.011C642.294 186.373 642.195 185.823 642.041 185.361C641.799 184.591 641.392 184.041 640.82 183.711C640.27 183.359 639.5 183.183 638.51 183.183C637.278 183.183 636.398 183.326 635.87 183.612C635.342 183.876 634.99 184.437 634.814 185.295C634.638 186.131 634.55 187.55 634.55 189.552C634.55 191.532 634.638 192.951 634.814 193.809C634.99 194.667 635.342 195.239 635.87 195.525C636.398 195.789 637.278 195.921 638.51 195.921ZM652.187 181.17H654.431L654.563 184.371H654.761C655.091 183.051 655.663 182.149 656.477 181.665C657.313 181.159 658.402 180.906 659.744 180.906V183.447C658.424 183.447 657.39 183.689 656.642 184.173C655.916 184.635 655.41 185.35 655.124 186.318C654.838 187.264 654.695 188.529 654.695 190.113V198H652.187V181.17ZM668.964 198.264C667.204 198.264 665.939 197.912 665.169 197.208C664.399 196.482 664.014 195.195 664.014 193.347C664.014 192.071 664.146 191.081 664.41 190.377C664.696 189.651 665.169 189.134 665.829 188.826C666.511 188.496 667.457 188.331 668.667 188.331C669.283 188.331 671.076 188.386 674.046 188.496V187.374C674.046 186.01 673.936 185.042 673.716 184.47C673.496 183.876 673.089 183.502 672.495 183.348C671.923 183.172 670.944 183.084 669.558 183.084C668.942 183.084 668.161 183.117 667.215 183.183C666.291 183.249 665.543 183.326 664.971 183.414V181.368C666.511 181.06 668.304 180.906 670.35 180.906C672.11 180.906 673.419 181.104 674.277 181.5C675.157 181.874 675.751 182.512 676.059 183.414C676.389 184.316 676.554 185.636 676.554 187.374V198H674.31L674.178 195.657H674.013C673.617 196.713 672.968 197.417 672.066 197.769C671.186 198.099 670.152 198.264 668.964 198.264ZM669.855 196.086C670.779 196.086 671.527 195.998 672.099 195.822C672.693 195.624 673.133 195.239 673.419 194.667C673.837 193.809 674.046 192.654 674.046 191.202V190.245H669.327C668.513 190.245 667.908 190.322 667.512 190.476C667.138 190.608 666.874 190.883 666.72 191.301C666.566 191.697 666.489 192.324 666.489 193.182C666.489 194.018 666.577 194.634 666.753 195.03C666.929 195.426 667.248 195.701 667.71 195.855C668.172 196.009 668.887 196.086 669.855 196.086ZM684.841 198V183.348H681.904V181.17H684.841V176.286H687.349V181.17H690.814V183.348H687.349V198H684.841ZM696.337 176.352V173.481H699.01V176.352H696.337ZM696.403 198V181.17H698.911V198H696.403ZM707.411 198V183.348H704.474V181.17H707.411V176.286H709.919V181.17H713.384V183.348H709.919V198H707.411ZM729.104 195.624H728.906C728.576 196.482 728.037 197.142 727.289 197.604C726.541 198.044 725.452 198.264 724.022 198.264C722.592 198.264 721.514 198.044 720.788 197.604C720.062 197.164 719.567 196.493 719.303 195.591C719.061 194.689 718.94 193.424 718.94 191.796V181.17H721.448V190.872C721.448 192.456 721.536 193.589 721.712 194.271C721.888 194.953 722.207 195.404 722.669 195.624C723.153 195.844 723.945 195.954 725.045 195.954C726.255 195.954 727.135 195.734 727.685 195.294C728.235 194.832 728.576 194.205 728.708 193.413C728.862 192.599 728.939 191.433 728.939 189.915V181.17H731.447V198H729.203L729.104 195.624ZM743.667 198.264C742.171 198.264 741.027 198.022 740.235 197.538C739.465 197.032 738.915 196.174 738.585 194.964C738.277 193.754 738.123 191.972 738.123 189.618C738.123 187.264 738.277 185.482 738.585 184.272C738.893 183.04 739.432 182.171 740.202 181.665C740.972 181.159 742.105 180.906 743.601 180.906C744.833 180.906 745.834 181.093 746.604 181.467C747.396 181.819 747.979 182.413 748.353 183.249H748.518V173.481H751.026V198H748.782L748.683 195.657H748.485C748.111 196.669 747.506 197.362 746.67 197.736C745.856 198.088 744.855 198.264 743.667 198.264ZM744.624 195.987C745.592 195.987 746.351 195.844 746.901 195.558C747.473 195.25 747.869 194.766 748.089 194.106C748.265 193.556 748.375 192.94 748.419 192.258C748.485 191.554 748.518 190.586 748.518 189.354C748.518 188.408 748.496 187.638 748.452 187.044C748.408 186.428 748.32 185.889 748.188 185.427C747.968 184.635 747.572 184.063 747 183.711C746.428 183.359 745.614 183.183 744.558 183.183C743.348 183.183 742.479 183.326 741.951 183.612C741.445 183.898 741.104 184.47 740.928 185.328C740.752 186.164 740.664 187.583 740.664 189.585C740.664 191.587 740.752 193.017 740.928 193.875C741.104 194.733 741.456 195.305 741.984 195.591C742.512 195.855 743.392 195.987 744.624 195.987ZM757.839 198V194.898H760.743V198H757.839Z" fill="black"/>
<defs>
<clipPath id="clip0_1_72">
<rect width="763" height="203" fill="white"/>
</clipPath>
</defs>
</svg>
