<svg width="763" height="203" viewBox="0 0 763 203" fill="none" xmlns="http://www.w3.org/2000/svg">
<g clip-path="url(#clip0_9_2)">
<path d="M22.9469 62.3334V202.396H0.60199V47.7946H22.9469V62.913" fill="white"/>
<path d="M22.9469 62.3334V202.396H0.60199V47.7946H22.9469V62.913" stroke="white" stroke-miterlimit="10"/>
<path d="M110.605 52.7938H129.434L130.289 72.3439H131.782C134.057 64.2654 137.801 58.7107 143.014 55.6677C148.215 52.6247 155.102 51.1032 163.662 51.1032V71.716C155.246 71.716 148.685 73.1288 143.978 75.9665C139.27 78.8042 135.983 83.1514 134.129 89.0321C132.275 94.9129 131.348 102.943 131.348 113.147V161.159H110.593V52.7938H110.605Z" fill="white"/>
<path d="M194.386 156.534C188.463 153.467 184.646 148.347 182.937 141.162C181.227 133.977 180.372 122.3 180.372 106.119C180.372 89.9378 181.227 78.2246 182.937 70.9673C184.646 63.722 188.463 58.59 194.386 55.5953C200.309 52.6006 210.109 51.1032 223.81 51.1032C237.51 51.1032 247.31 52.6006 253.234 55.5953C259.157 58.6021 262.974 63.722 264.683 70.9673C266.393 78.2246 267.247 89.9378 267.247 106.119C267.247 122.3 266.393 133.977 264.683 141.162C262.974 148.347 259.157 153.467 253.234 156.534C247.31 159.601 237.51 161.135 223.81 161.135C210.109 161.135 200.309 159.601 194.386 156.534ZM239.858 141.464C242.856 139.785 244.71 136.585 245.42 131.84C246.131 127.094 246.492 118.52 246.492 106.107C246.492 93.6932 246.131 84.9386 245.42 80.2654C244.71 75.5922 242.856 72.4163 239.858 70.7499C236.86 69.0714 231.515 68.2382 223.81 68.2382C216.105 68.2382 210.976 69.0714 207.978 70.7499C204.98 72.4284 203.126 75.5922 202.416 80.2654C201.706 84.9386 201.345 93.5483 201.345 106.107C201.345 118.665 201.694 127.094 202.416 131.84C203.126 136.585 204.98 139.785 207.978 141.464C210.976 143.142 216.249 143.975 223.81 143.975C231.37 143.975 236.86 143.142 239.858 141.464Z" fill="white"/>
<path d="M293.132 52.7817H311.961L312.816 67.1877H314.309C316.729 60.9688 320.509 56.7303 325.65 54.4722C330.791 52.2141 336.846 51.079 343.841 51.079C352.822 51.079 359.781 52.7092 364.705 55.9575C369.629 59.2058 373.157 64.7847 375.3 72.6941C377.443 80.6035 378.514 91.9061 378.514 106.602C378.514 121.298 377.479 132.636 375.408 140.618C373.337 148.6 369.882 154.251 365.03 157.572C360.178 160.893 353.328 162.547 344.491 162.547C337.075 162.547 330.971 161.448 326.192 159.263C321.412 157.077 317.74 153.37 315.176 148.141H313.888V202.396H293.132V52.7817ZM350.366 139.773C353.292 138.167 355.254 134.774 356.254 129.593C357.253 124.413 357.747 115.767 357.747 103.643C357.747 91.5196 357.241 82.8736 356.254 77.6933C355.254 72.5129 353.292 69.1197 350.366 67.5137C347.441 65.9077 342.553 65.1107 335.715 65.1107C330.297 65.1107 326.047 65.9922 322.989 67.7431C319.919 69.4941 317.752 72.4163 316.464 76.4978C315.32 79.565 314.61 83.1393 314.321 87.2329C314.032 91.3264 313.888 96.7966 313.888 103.655C313.888 115.912 314.598 124.534 316.031 129.497C317.451 134.025 319.702 137.273 322.773 139.242C325.843 141.21 330.153 142.2 335.715 142.2C342.565 142.2 347.441 141.403 350.366 139.797V139.773Z" fill="white"/>
<path d="M404.627 21.4339V0H426.238V21.4339H404.627ZM405.061 160.845V50.4391H425.817V160.845H405.061Z" fill="white"/>
<path d="M515.665 100.806C515.665 90.8917 515.196 83.8397 514.269 79.6616C513.342 75.4835 511.596 72.7544 509.032 71.4744C506.467 70.1944 502.037 69.5665 495.765 69.5665C489.492 69.5665 484.351 70.8465 481.209 73.3944C478.067 75.9423 476.068 79.6374 475.214 84.4434C474.359 89.2615 473.925 96.1325 473.925 105.056V161.171H453.17V52.7696H471.999L472.854 67.2239H474.347C476.622 61.9831 480.198 57.9741 485.05 55.2088C489.901 52.4436 496.463 51.067 504.734 51.067C513.715 51.067 520.457 52.516 524.96 55.4262C529.45 58.3364 532.484 62.6956 534.049 68.5039C535.615 74.3122 536.397 82.3906 536.397 92.7393V161.183H515.641V100.818L515.665 100.806Z" fill="white"/>
<path d="M566.82 21.6633V0.229431H588.431V21.6633H566.82ZM567.254 161.074V50.6685H588.009V161.074H567.254Z" fill="white"/>
<path d="M625.74 161.062V68.4073H607.128V50.6564H625.74V18.6203H646.496V50.6564H668.54V68.4073H646.496V161.062H625.74Z" fill="white"/>
<path d="M687.357 153.998C682.433 149.264 679.977 141.174 679.977 129.738C679.977 121.515 680.904 115.103 682.758 110.502C684.612 105.901 687.755 102.557 692.173 100.468C696.591 98.3785 702.804 97.3279 710.786 97.3279C718.057 97.3279 728.544 97.6057 742.244 98.1611V92.5098C742.244 84.7091 741.606 79.2027 740.318 75.9907C739.03 72.7907 736.61 70.6896 733.046 69.7114C729.483 68.7333 723.487 68.2503 715.072 68.2503C711.075 68.2503 706.09 68.4556 700.095 68.8782C694.099 69.3009 689.464 69.7839 686.19 70.3394V54.0255C696.892 52.0692 708.727 51.1032 721.705 51.1032C733.54 51.1032 742.389 52.4315 748.24 55.076C754.091 57.7205 758.004 61.9469 760.014 67.7311C762.013 73.5152 763.012 81.9197 763.012 92.9325V159.432H744.183L743.328 145.63H742.04C739.331 151.764 735.225 155.882 729.736 157.971C724.246 160.06 717.865 161.11 710.581 161.11C700.023 161.11 692.281 158.744 687.369 153.998H687.357ZM731.541 142.309C734.672 141.198 737.104 139.109 738.813 136.03C741.089 131.574 742.232 125.017 742.232 116.371V111.348H715.915C711.496 111.348 708.209 111.734 706.066 112.495C703.923 113.268 702.431 114.789 701.576 117.095C700.721 119.39 700.288 122.988 700.288 127.867C700.288 132.467 700.745 135.885 701.684 138.119C702.611 140.353 704.393 141.886 707.03 142.719C709.666 143.553 713.771 143.975 719.334 143.975C724.33 143.975 728.387 143.42 731.529 142.297L731.541 142.309Z" fill="white"/>
<path d="M22.9468 47.7946H0.60199V202.408H22.9468V47.7946Z" fill="white"/>
<path d="M27.2448 47.5892V161.05C27.4736 161.05 27.7143 161.05 27.9551 161.05C58.5228 161.05 83.5043 137.43 85.262 107.652H91.3057V117.071C91.3057 117.071 91.3057 119.426 91.3057 119.438C91.3057 121.165 92.7023 122.566 94.4239 122.566C96.1455 122.566 97.542 121.165 97.542 119.438V117.095V88.9838C97.542 87.257 96.1455 85.8562 94.4239 85.8562C92.7023 85.8562 91.3057 87.257 91.3057 88.9838C91.3057 88.9838 91.3057 88.9959 91.3057 89.0079V100.842H85.25C83.432 71.1242 58.4746 47.5771 27.9551 47.5771H27.2448V47.5892Z" fill="#B49B24"/>
</g>
<defs>
<clipPath id="clip0_9_2">
<rect width="763" height="203" fill="white"/>
</clipPath>
</defs>
</svg>
