<svg width="262" height="417" viewBox="0 0 262 417" fill="none" xmlns="http://www.w3.org/2000/svg">
<path d="M60.718 0.583252H0.618164V416.44H60.718V0.583252Z" fill="white"/>
<path d="M72.2803 0.0325352V305.203C72.8957 305.203 73.5431 305.203 74.1907 305.203C156.407 305.203 223.599 241.673 228.327 161.58H244.582V186.914C244.582 186.914 244.582 193.248 244.582 193.281C244.582 197.926 248.338 201.694 252.969 201.694C257.599 201.694 261.355 197.926 261.355 193.281V186.979V111.369C261.355 106.725 257.599 102.958 252.969 102.958C248.338 102.958 244.582 106.725 244.582 111.369C244.582 111.369 244.582 111.402 244.582 111.435V143.264H228.294C223.404 63.3336 156.278 0 74.1907 0H72.2803V0.0325352Z" fill="#B49B24"/>
</svg>
