<svg width="230" height="230" viewBox="0 0 230 230" fill="none" xmlns="http://www.w3.org/2000/svg">
<g id="react-icons/io5/IoQrCodeOutline">
<path id="Vector" d="M183.281 150.938H154.531C152.546 150.938 150.938 152.546 150.938 154.531V183.281C150.938 185.266 152.546 186.875 154.531 186.875H183.281C185.266 186.875 186.875 185.266 186.875 183.281V154.531C186.875 152.546 185.266 150.938 183.281 150.938Z" fill="#B49B25"/>
<path id="Vector_2" d="M147.344 122.188H125.781C123.796 122.188 122.188 123.796 122.188 125.781V147.344C122.188 149.329 123.796 150.938 125.781 150.938H147.344C149.329 150.938 150.938 149.329 150.938 147.344V125.781C150.938 123.796 149.329 122.188 147.344 122.188Z" fill="#B49B25"/>
<path id="Vector_3" d="M212.031 186.875H190.469C188.484 186.875 186.875 188.484 186.875 190.469V212.031C186.875 214.016 188.484 215.625 190.469 215.625H212.031C214.016 215.625 215.625 214.016 215.625 212.031V190.469C215.625 188.484 214.016 186.875 212.031 186.875Z" fill="#B49B25"/>
<path id="Vector_4" d="M212.031 122.188H197.656C195.671 122.188 194.062 123.796 194.062 125.781V140.156C194.062 142.141 195.671 143.75 197.656 143.75H212.031C214.016 143.75 215.625 142.141 215.625 140.156V125.781C215.625 123.796 214.016 122.188 212.031 122.188Z" fill="#B49B25"/>
<path id="Vector_5" d="M140.156 194.062H125.781C123.796 194.062 122.188 195.671 122.188 197.656V212.031C122.188 214.016 123.796 215.625 125.781 215.625H140.156C142.141 215.625 143.75 214.016 143.75 212.031V197.656C143.75 195.671 142.141 194.062 140.156 194.062Z" fill="#B49B25"/>
<path id="Vector_6" d="M183.281 43.125H154.531C152.546 43.125 150.938 44.734 150.938 46.7188V75.4688C150.938 77.4535 152.546 79.0625 154.531 79.0625H183.281C185.266 79.0625 186.875 77.4535 186.875 75.4688V46.7188C186.875 44.734 185.266 43.125 183.281 43.125Z" fill="#B49B25"/>
<path id="Vector (Stroke)" fill-rule="evenodd" clip-rule="evenodd" d="M122.188 28.75C122.188 20.8109 128.623 14.375 136.562 14.375H201.25C209.189 14.375 215.625 20.8109 215.625 28.75V93.4375C215.625 101.377 209.189 107.812 201.25 107.812H136.562C128.623 107.812 122.188 101.377 122.188 93.4375V28.75ZM201.25 28.75H136.562V93.4375H201.25V28.75Z" fill="#B49B25"/>
<path id="Vector_7" d="M75.4688 43.125H46.7188C44.734 43.125 43.125 44.734 43.125 46.7188V75.4688C43.125 77.4535 44.734 79.0625 46.7188 79.0625H75.4688C77.4535 79.0625 79.0625 77.4535 79.0625 75.4688V46.7188C79.0625 44.734 77.4535 43.125 75.4688 43.125Z" fill="#B49B25"/>
<path id="Vector (Stroke)_2" fill-rule="evenodd" clip-rule="evenodd" d="M14.375 28.75C14.375 20.8109 20.8109 14.375 28.75 14.375H93.4375C101.377 14.375 107.812 20.8109 107.812 28.75V93.4375C107.812 101.377 101.377 107.812 93.4375 107.812H28.75C20.8109 107.812 14.375 101.377 14.375 93.4375V28.75ZM93.4375 28.75H28.75V93.4375H93.4375V28.75Z" fill="#B49B25"/>
<path id="Vector_8" d="M75.4688 150.938H46.7188C44.734 150.938 43.125 152.546 43.125 154.531V183.281C43.125 185.266 44.734 186.875 46.7188 186.875H75.4688C77.4535 186.875 79.0625 185.266 79.0625 183.281V154.531C79.0625 152.546 77.4535 150.938 75.4688 150.938Z" fill="#B49B25"/>
<path id="Vector (Stroke)_3" fill-rule="evenodd" clip-rule="evenodd" d="M14.375 136.562C14.375 128.623 20.8109 122.188 28.75 122.188H93.4375C101.377 122.188 107.812 128.623 107.812 136.562V201.25C107.812 209.189 101.377 215.625 93.4375 215.625H28.75C20.8109 215.625 14.375 209.189 14.375 201.25V136.562ZM93.4375 136.562H28.75V201.25H93.4375V136.562Z" fill="#B49B25"/>
</g>
</svg>
